<svg preserveAspectRatio="none" width="100%" height="100%" overflow="visible" style="display: block;" viewBox="0 0 17.3333 17.3333" fill="none" xmlns="http://www.w3.org/2000/svg">
<g id="elements">
<path id="Rectangle 2191" d="M0.750001 8.66667C0.750001 4.93471 0.750001 3.06874 1.90937 1.90937C3.06874 0.750001 4.93471 0.750001 8.66667 0.750001C12.3986 0.750001 14.2646 0.750001 15.424 1.90937C16.5833 3.06874 16.5833 4.93471 16.5833 8.66667C16.5833 12.3986 16.5833 14.2646 15.424 15.424C14.2646 16.5833 12.3986 16.5833 8.66667 16.5833C4.93471 16.5833 3.06874 16.5833 1.90937 15.424C0.750001 14.2646 0.750001 12.3986 0.750001 8.66667Z" stroke="var(--stroke-0, #252525)" stroke-width="1.5"/>
<path id="Vector 4451" d="M5.80712 8.66667L5.09223 7.95178C4.30259 7.16214 4.30259 5.88187 5.09223 5.09223C5.88187 4.30259 7.16214 4.30259 7.95178 5.09223L12.2411 9.38155C13.0307 10.1712 13.0307 11.4515 12.2411 12.2411C11.4515 13.0307 10.1712 13.0307 9.38155 12.2411L7.77306 10.6326C6.5974 9.45695 8.28855 7.87189 9.5 9.08333L10.3333 9.91667" stroke="var(--stroke-0, #252525)" stroke-width="1.5" stroke-linecap="round" stroke-linejoin="round"/>
</g>
</svg>
