<svg preserveAspectRatio="none" width="100%" height="100%" overflow="visible" style="display: block;" viewBox="0 0 21.5 21.5002" fill="none" xmlns="http://www.w3.org/2000/svg">
<g id="elements">
<path id="Rectangle 2077" d="M1.75 8.75C1.75 4.97876 1.75 3.09315 2.92157 1.92157C4.09315 0.750001 5.97876 0.750001 9.75 0.750001H11.75C15.5212 0.750001 17.4069 0.750001 18.5784 1.92157C19.75 3.09315 19.75 4.97876 19.75 8.75V14.75H1.75V8.75Z" stroke="var(--stroke-0, #F822CE)" stroke-width="1.5" stroke-linejoin="round"/>
<path id="Vector 4588" d="M0.75 14.75L20.75 14.75" stroke="var(--stroke-0, #F822CE)" stroke-width="1.5" stroke-linecap="round"/>
<path id="Vector 4589" d="M2.75 20.75L5.75 14.75" stroke="var(--stroke-0, #F822CE)" stroke-width="1.5" stroke-linecap="round"/>
<path id="Vector 4590" d="M18.75 20.75L15.75 14.75" stroke="var(--stroke-0, #F822CE)" stroke-width="1.5" stroke-linecap="round"/>
<path id="Vector 4611" d="M11.75 7.75L9.75 7.75" stroke="var(--stroke-0, #F822CE)" stroke-width="1.5" stroke-linecap="round" stroke-linejoin="round"/>
<path id="Vector 4612" d="M6.75 9.75L6.75 5.75L5.75 6.75" stroke="var(--stroke-0, #F822CE)" stroke-width="1.5" stroke-linecap="round" stroke-linejoin="round"/>
<path id="Vector 4613" d="M15.75 9.75L15.75 5.75L14.75 6.75" stroke="var(--stroke-0, #F822CE)" stroke-width="1.5" stroke-linecap="round" stroke-linejoin="round"/>
<path id="Vector 4614" d="M10.75 18.75L10.75 14.75" stroke="var(--stroke-0, #F822CE)" stroke-width="1.5" stroke-linecap="round" stroke-linejoin="round"/>
</g>
</svg>
