<svg preserveAspectRatio="none" width="100%" height="100%" overflow="visible" style="display: block;" viewBox="0 0 32 33.2158" fill="none" xmlns="http://www.w3.org/2000/svg">
<g id="Vector">
<path fill-rule="evenodd" clip-rule="evenodd" d="M0 16.6079C0 7.43561 7.16344 0 16 0C24.8366 0 32 7.43561 32 16.6079C32 25.7802 24.8366 33.2158 16 33.2158C7.16344 33.2158 0 25.7802 0 16.6079ZM16.0008 7.75036C13.6833 7.75036 13.3924 7.76088 12.4822 7.80387C11.5737 7.84705 10.9536 7.99634 10.4111 8.21538C9.8498 8.44162 9.37371 8.74426 8.89939 9.23678C8.42472 9.72912 8.13316 10.2233 7.91449 10.8057C7.70294 11.3691 7.55893 12.0129 7.51805 12.9555C7.47733 13.9003 7.46667 14.2024 7.46667 16.608C7.46667 19.0136 7.47698 19.3146 7.51822 20.2594C7.56 21.2024 7.70382 21.846 7.91467 22.4092C8.13281 22.9918 8.42437 23.486 8.89886 23.9783C9.373 24.471 9.84909 24.7744 10.41 25.0006C10.9529 25.2197 11.5732 25.369 12.4815 25.4121C13.3917 25.4551 13.6824 25.4656 15.9997 25.4656C18.3174 25.4656 18.6074 25.4551 19.5176 25.4121C20.4261 25.369 21.0469 25.2197 21.5898 25.0006C22.1509 24.7744 22.6263 24.471 23.1004 23.9783C23.5751 23.486 23.8667 22.9918 24.0853 22.4094C24.2951 21.846 24.4391 21.2022 24.4818 20.2596C24.5227 19.3148 24.5333 19.0136 24.5333 16.608C24.5333 14.2024 24.5227 13.9005 24.4818 12.9557C24.4391 12.0127 24.2951 11.3691 24.0853 10.8059C23.8667 10.2233 23.5751 9.72912 23.1004 9.23678C22.6258 8.74408 22.1511 8.44144 21.5893 8.21538C21.0453 7.99634 20.4248 7.84705 19.5164 7.80387C18.6062 7.76088 18.3164 7.75036 15.9981 7.75036H16.0008Z" fill="#1D81E2"/>
<path fill-rule="evenodd" clip-rule="evenodd" d="M0 16.6079C0 7.43561 7.16344 0 16 0C24.8366 0 32 7.43561 32 16.6079C32 25.7802 24.8366 33.2158 16 33.2158C7.16344 33.2158 0 25.7802 0 16.6079ZM16.0008 7.75036C13.6833 7.75036 13.3924 7.76088 12.4822 7.80387C11.5737 7.84705 10.9536 7.99634 10.4111 8.21538C9.8498 8.44162 9.37371 8.74426 8.89939 9.23678C8.42472 9.72912 8.13316 10.2233 7.91449 10.8057C7.70294 11.3691 7.55893 12.0129 7.51805 12.9555C7.47733 13.9003 7.46667 14.2024 7.46667 16.608C7.46667 19.0136 7.47698 19.3146 7.51822 20.2594C7.56 21.2024 7.70382 21.846 7.91467 22.4092C8.13281 22.9918 8.42437 23.486 8.89886 23.9783C9.373 24.471 9.84909 24.7744 10.41 25.0006C10.9529 25.2197 11.5732 25.369 12.4815 25.4121C13.3917 25.4551 13.6824 25.4656 15.9997 25.4656C18.3174 25.4656 18.6074 25.4551 19.5176 25.4121C20.4261 25.369 21.0469 25.2197 21.5898 25.0006C22.1509 24.7744 22.6263 24.471 23.1004 23.9783C23.5751 23.486 23.8667 22.9918 24.0853 22.4094C24.2951 21.846 24.4391 21.2022 24.4818 20.2596C24.5227 19.3148 24.5333 19.0136 24.5333 16.608C24.5333 14.2024 24.5227 13.9005 24.4818 12.9557C24.4391 12.0127 24.2951 11.3691 24.0853 10.8059C23.8667 10.2233 23.5751 9.72912 23.1004 9.23678C22.6258 8.74408 22.1511 8.44144 21.5893 8.21538C21.0453 7.99634 20.4248 7.84705 19.5164 7.80387C18.6062 7.76088 18.3164 7.75036 15.9981 7.75036H16.0008Z" fill="#1D81E2"/>
<path fill-rule="evenodd" clip-rule="evenodd" d="M15.2353 9.34658C15.4625 9.34621 15.716 9.34658 16.0008 9.34658C18.2792 9.34658 18.5493 9.35507 19.449 9.39751C20.281 9.437 20.7326 9.58131 21.0334 9.70255C21.4316 9.86309 21.7155 10.055 22.014 10.365C22.3127 10.675 22.4976 10.9703 22.6526 11.3837C22.7694 11.6955 22.9086 12.1642 22.9465 13.0279C22.9874 13.9616 22.9963 14.2421 22.9963 16.606C22.9963 18.9699 22.9874 19.2503 22.9465 20.1841C22.9084 21.0477 22.7694 21.5164 22.6526 21.8283C22.4979 22.2416 22.3127 22.536 22.014 22.8458C21.7153 23.1558 21.4318 23.3477 21.0334 23.5083C20.7329 23.6301 20.281 23.774 19.449 23.8135C18.5494 23.856 18.2792 23.8652 16.0008 23.8652C13.7222 23.8652 13.4522 23.856 12.5526 23.8135C11.7206 23.7737 11.269 23.6293 10.968 23.5081C10.5698 23.3476 10.2854 23.1556 9.98669 22.8456C9.68802 22.5356 9.50313 22.2411 9.34811 21.8276C9.23131 21.5157 9.09211 21.047 9.05424 20.1834C9.01335 19.2496 9.00517 18.9691 9.00517 16.6038C9.00517 14.2384 9.01335 13.9594 9.05424 13.0256C9.09228 12.162 9.23131 11.6933 9.34811 11.3811C9.50278 10.9677 9.68802 10.6725 9.98669 10.3624C10.2854 10.0524 10.5698 9.86051 10.968 9.69959C11.2688 9.5778 11.7206 9.43386 12.5526 9.39419C13.3398 9.35728 13.6449 9.34621 15.2353 9.34437V9.34658ZM20.5559 10.8173C19.9905 10.8173 19.5319 11.2929 19.5319 11.8799C19.5319 12.4667 19.9905 12.9428 20.5559 12.9428C21.1212 12.9428 21.5799 12.4667 21.5799 11.8799C21.5799 11.293 21.1212 10.8173 20.5559 10.8173ZM16.0008 12.0592C13.5807 12.0592 11.6185 14.0959 11.6185 16.608C11.6185 19.1201 13.5807 21.1559 16.0008 21.1559C18.4209 21.1559 20.3824 19.1201 20.3824 16.608C20.3824 14.0959 18.4209 12.0592 16.0008 12.0592Z" fill="#1D81E2"/>
<path fill-rule="evenodd" clip-rule="evenodd" d="M15.2353 9.34658C15.4625 9.34621 15.716 9.34658 16.0008 9.34658C18.2792 9.34658 18.5493 9.35507 19.449 9.39751C20.281 9.437 20.7326 9.58131 21.0334 9.70255C21.4316 9.86309 21.7155 10.055 22.014 10.365C22.3127 10.675 22.4976 10.9703 22.6526 11.3837C22.7694 11.6955 22.9086 12.1642 22.9465 13.0279C22.9874 13.9616 22.9963 14.2421 22.9963 16.606C22.9963 18.9699 22.9874 19.2503 22.9465 20.1841C22.9084 21.0477 22.7694 21.5164 22.6526 21.8283C22.4979 22.2416 22.3127 22.536 22.014 22.8458C21.7153 23.1558 21.4318 23.3477 21.0334 23.5083C20.7329 23.6301 20.281 23.774 19.449 23.8135C18.5494 23.856 18.2792 23.8652 16.0008 23.8652C13.7222 23.8652 13.4522 23.856 12.5526 23.8135C11.7206 23.7737 11.269 23.6293 10.968 23.5081C10.5698 23.3476 10.2854 23.1556 9.98669 22.8456C9.68802 22.5356 9.50313 22.2411 9.34811 21.8276C9.23131 21.5157 9.09211 21.047 9.05424 20.1834C9.01335 19.2496 9.00517 18.9691 9.00517 16.6038C9.00517 14.2384 9.01335 13.9594 9.05424 13.0256C9.09228 12.162 9.23131 11.6933 9.34811 11.3811C9.50278 10.9677 9.68802 10.6725 9.98669 10.3624C10.2854 10.0524 10.5698 9.86051 10.968 9.69959C11.2688 9.5778 11.7206 9.43386 12.5526 9.39419C13.3398 9.35728 13.6449 9.34621 15.2353 9.34437V9.34658ZM20.5559 10.8173C19.9905 10.8173 19.5319 11.2929 19.5319 11.8799C19.5319 12.4667 19.9905 12.9428 20.5559 12.9428C21.1212 12.9428 21.5799 12.4667 21.5799 11.8799C21.5799 11.293 21.1212 10.8173 20.5559 10.8173ZM16.0008 12.0592C13.5807 12.0592 11.6185 14.0959 11.6185 16.608C11.6185 19.1201 13.5807 21.1559 16.0008 21.1559C18.4209 21.1559 20.3824 19.1201 20.3824 16.608C20.3824 14.0959 18.4209 12.0592 16.0008 12.0592Z" fill="#1D81E2"/>
<path fill-rule="evenodd" clip-rule="evenodd" d="M16.0008 13.6555C17.5717 13.6555 18.8453 14.9773 18.8453 16.608C18.8453 18.2385 17.5717 19.5606 16.0008 19.5606C14.4298 19.5606 13.1563 18.2385 13.1563 16.608C13.1563 14.9773 14.4298 13.6555 16.0008 13.6555Z" fill="#1D81E2"/>
<path fill-rule="evenodd" clip-rule="evenodd" d="M16.0008 13.6555C17.5717 13.6555 18.8453 14.9773 18.8453 16.608C18.8453 18.2385 17.5717 19.5606 16.0008 19.5606C14.4298 19.5606 13.1563 18.2385 13.1563 16.608C13.1563 14.9773 14.4298 13.6555 16.0008 13.6555Z" fill="#1D81E2"/>
</g>
</svg>
