<svg preserveAspectRatio="none" width="100%" height="100%" overflow="visible" style="display: block;" viewBox="0 0 32 33.2158" fill="none" xmlns="http://www.w3.org/2000/svg">
<g id="LinkedIN_white">
<g id="Combined-Shape">
<path fill-rule="evenodd" clip-rule="evenodd" d="M0 16.6079C0 7.43561 7.16344 0 16 0C24.8366 0 32 7.43561 32 16.6079C32 25.7802 24.8366 33.2158 16 33.2158C7.16344 33.2158 0 25.7802 0 16.6079ZM11.307 13.7554H7.68108V25.0638H11.307V13.7554ZM11.5458 10.2573C11.5223 9.14847 10.7584 8.30396 9.51802 8.30396C8.27761 8.30396 7.46667 9.14847 7.46667 10.2573C7.46667 11.3431 8.25364 12.2119 9.47095 12.2119H9.49413C10.7584 12.2119 11.5458 11.3431 11.5458 10.2573ZM24.3836 18.5799C24.3836 15.1065 22.5948 13.4899 20.2088 13.4899C18.2836 13.4899 17.4217 14.5875 16.9405 15.3574V13.7557H13.3141C13.3619 14.8168 13.3141 25.0641 13.3141 25.0641H16.9405V18.7486C16.9405 18.4106 16.964 18.0734 17.0599 17.8315C17.3219 17.1563 17.9186 16.4572 18.9203 16.4572C20.2329 16.4572 20.7576 17.4942 20.7576 19.0138V25.0638H24.3834L24.3836 18.5799Z" fill="var(--fill-0, #1D81E2)"/>
<path fill-rule="evenodd" clip-rule="evenodd" d="M0 16.6079C0 7.43561 7.16344 0 16 0C24.8366 0 32 7.43561 32 16.6079C32 25.7802 24.8366 33.2158 16 33.2158C7.16344 33.2158 0 25.7802 0 16.6079ZM11.307 13.7554H7.68108V25.0638H11.307V13.7554ZM11.5458 10.2573C11.5223 9.14847 10.7584 8.30396 9.51802 8.30396C8.27761 8.30396 7.46667 9.14847 7.46667 10.2573C7.46667 11.3431 8.25364 12.2119 9.47095 12.2119H9.49413C10.7584 12.2119 11.5458 11.3431 11.5458 10.2573ZM24.3836 18.5799C24.3836 15.1065 22.5948 13.4899 20.2088 13.4899C18.2836 13.4899 17.4217 14.5875 16.9405 15.3574V13.7557H13.3141C13.3619 14.8168 13.3141 25.0641 13.3141 25.0641H16.9405V18.7486C16.9405 18.4106 16.964 18.0734 17.0599 17.8315C17.3219 17.1563 17.9186 16.4572 18.9203 16.4572C20.2329 16.4572 20.7576 17.4942 20.7576 19.0138V25.0638H24.3834L24.3836 18.5799Z" fill="var(--fill-1, #1D81E2)"/>
</g>
</g>
</svg>
