<svg preserveAspectRatio="none" width="100%" height="100%" overflow="visible" style="display: block;" viewBox="0 0 21.5 21.5" fill="none" xmlns="http://www.w3.org/2000/svg">
<g id="elements">
<circle id="Ellipse 1770" cx="10" cy="10" r="10" transform="matrix(1 0 0 -1 0.75 20.75)" stroke="var(--stroke-0, #3CBABA)" stroke-width="1.5" stroke-linecap="round" stroke-linejoin="round"/>
<path id="Ellipse 1772" d="M6.75 7.75C7.66212 6.53555 9.11433 5.75 10.75 5.75C12.3857 5.75 13.8379 6.53555 14.75 7.75" stroke="var(--stroke-0, #3CBABA)" stroke-width="1.5" stroke-linecap="round" stroke-linejoin="round"/>
<path id="Vector" d="M8.75 13.75C8.75 12.6454 7.85457 11.75 6.75 11.75C5.64543 11.75 4.75 12.6454 4.75 13.75C4.75 14.8546 5.64543 15.75 6.75 15.75C7.85457 15.75 8.75 14.8546 8.75 13.75ZM8.75 13.75C9.31022 14.3102 9.91434 14.75 10.75 14.75C11.5857 14.75 12.1898 14.3102 12.75 13.75M19.75 14.75H16.4824M5.01756 14.75H1.75M12.75 13.75C12.75 12.6454 13.6454 11.75 14.75 11.75C15.8546 11.75 16.75 12.6454 16.75 13.75C16.75 14.8546 15.8546 15.75 14.75 15.75C13.6454 15.75 12.75 14.8546 12.75 13.75Z" stroke="var(--stroke-0, #3CBABA)" stroke-width="1.5" stroke-linecap="round" stroke-linejoin="round"/>
</g>
</svg>
