<svg preserveAspectRatio="none" width="100%" height="100%" overflow="visible" style="display: block;" viewBox="0 0 31.9906 32" fill="none" xmlns="http://www.w3.org/2000/svg">
<g id="Group">
<path id="Vector" d="M16.0317 0H15.9589C7.14503 0 0 7.14713 0 15.9636V16.0364C0 24.8529 7.14503 32 15.9589 32H16.0317C24.8456 32 31.9906 24.8529 31.9906 16.0364V15.9636C31.9906 7.14713 24.8456 0 16.0317 0Z" fill="var(--fill-0, #1D81E2)"/>
<path id="Vector_2" d="M23.7281 11.5767V14.5981C23.2003 14.5465 22.5143 14.4266 21.7556 14.1485C20.7648 13.7853 20.0273 13.2886 19.5442 12.9041V19.0108L19.5319 18.9917C19.5398 19.1128 19.5442 19.2361 19.5442 19.3606C19.5442 22.3932 17.0774 24.8619 14.0446 24.8619C11.0117 24.8619 8.54486 22.3932 8.54486 19.3606C8.54486 16.328 11.0117 13.8581 14.0446 13.8581C14.3416 13.8581 14.633 13.8817 14.9177 13.9277V16.9053C14.6442 16.8078 14.3505 16.7551 14.0446 16.7551C12.6088 16.7551 11.4399 17.9233 11.4399 19.3606C11.4399 20.7979 12.6088 21.9661 14.0446 21.9661C15.4803 21.9661 16.6493 20.7967 16.6493 19.3606C16.6493 19.3068 16.6481 19.253 16.6448 19.1991V7.33213H19.6631C19.6743 7.58775 19.6844 7.84561 19.6956 8.10122C19.7157 8.6046 19.8951 9.0878 20.2078 9.48355C20.5742 9.94882 21.1156 10.4892 21.8755 10.9208C22.5872 11.3233 23.2552 11.4971 23.7281 11.5789V11.5767Z" fill="var(--fill-0, white)"/>
</g>
</svg>
