<svg preserveAspectRatio="none" width="100%" height="100%" overflow="visible" style="display: block;" viewBox="0 0 31.9906 32" fill="none" xmlns="http://www.w3.org/2000/svg">
<g id="Group">
<path id="Vector" d="M31.9906 16C31.9906 7.16344 24.8293 0 15.9953 0C7.16134 0 0 7.16344 0 16C0 24.8366 7.16134 32 15.9953 32C24.8293 32 31.9906 24.8366 31.9906 16Z" fill="var(--fill-0, #1D81E2)"/>
<path id="Vector_2" d="M26.0672 12.6844C25.9414 11.469 25.6705 10.1255 24.6735 9.4194C23.9013 8.87186 22.8864 8.85162 21.9389 8.85275C19.936 8.85275 17.9319 8.85612 15.929 8.85725C14.0025 8.8595 12.076 8.86062 10.1495 8.86287C9.34474 8.86287 8.56245 8.80103 7.815 9.14956C7.17321 9.44863 6.6708 10.0175 6.36845 10.6505C5.9492 11.5308 5.86154 12.5281 5.81096 13.5018C5.71767 15.2748 5.72779 17.0523 5.83906 18.8242C5.92111 20.1172 6.12904 21.5462 7.12826 22.3703C8.01395 23.1 9.26381 23.1359 10.4125 23.1371C14.0587 23.1404 17.706 23.1438 21.3533 23.146C21.8209 23.1472 22.3087 23.1382 22.7852 23.0865C23.7226 22.9853 24.6162 22.7166 25.2186 22.0217C25.8267 21.3213 25.9829 20.3465 26.0751 19.4235C26.2999 17.1839 26.2977 14.9229 26.0672 12.6844ZM13.8204 19.139V12.8598L19.256 15.9988L13.8204 19.139Z" fill="var(--fill-0, white)"/>
</g>
</svg>
